<?xml version="1.0" encoding="UTF-8" standalone="no"?>
<!-- Created with Inkscape (http://www.inkscape.org/) -->

<svg
   width="19.973614mm"
   height="19.695646mm"
   viewBox="0 0 19.973614 19.695646"
   version="1.1"
   id="svg23393"
   inkscape:version="1.2.2 (b0a8486541, 2022-12-01)"
   sodipodi:docname="award-ceremoby-icon.svg"
   xmlns:inkscape="http://www.inkscape.org/namespaces/inkscape"
   xmlns:sodipodi="http://sodipodi.sourceforge.net/DTD/sodipodi-0.dtd"
   xmlns="http://www.w3.org/2000/svg"
   xmlns:svg="http://www.w3.org/2000/svg">
  <sodipodi:namedview
     id="namedview23395"
     pagecolor="#ffffff"
     bordercolor="#000000"
     borderopacity="0.25"
     inkscape:showpageshadow="2"
     inkscape:pageopacity="0.0"
     inkscape:pagecheckerboard="0"
     inkscape:deskcolor="#d1d1d1"
     inkscape:document-units="mm"
     showgrid="true"
     inkscape:zoom="8"
     inkscape:cx="3.25"
     inkscape:cy="29.875"
     inkscape:window-width="1920"
     inkscape:window-height="1007"
     inkscape:window-x="0"
     inkscape:window-y="0"
     inkscape:window-maximized="1"
     inkscape:current-layer="layer1" />
  <defs
     id="defs23390" />
  <g
     inkscape:label="Layer 1"
     inkscape:groupmode="layer"
     id="layer1"
     transform="translate(-3.7101909,-2.5212154)">
    <g
       id="g27567">
      <path
         style="fill:#ffffff;fill-opacity:1;stroke:#636363;stroke-width:0.888399;stroke-dasharray:none;stroke-opacity:1"
         d="m 4.2658108,5.8786368 c 0,0 3.3482319,15.8857202 9.4166722,15.8940212 6.068439,0.0084 9.440865,-16.0796292 9.440865,-16.0796292 0,0 -3.282576,0.3611799 -4.71655,-0.039315 -1.733024,-0.4840158 -4.827282,-2.5915697 -4.827282,-2.5915697 0,0 -2.954604,2.095215 -4.5162732,2.5674686 C 7.5203436,6.09619 4.2658108,5.8786371 4.2658108,5.8786368 Z"
         id="path25199"
         sodipodi:nodetypes="czcscsc" />
      <path
         style="fill:#ffffff;fill-opacity:1;stroke:#ec5242;stroke-width:0.516884;stroke-dasharray:none;stroke-opacity:1"
         d="m 6.619277,7.402763 c 0,0 2.5290282,12.492805 7.112716,12.499334 4.583688,0.0065 7.13099,-12.6452996 7.13099,-12.6452996 0,0 -2.479436,0.2840382 -3.562562,-0.030917 -1.309008,-0.3806378 -3.646202,-2.0380548 -3.646202,-2.0380548 0,0 -2.231706,1.6477134 -3.411288,2.0191018 C 9.0775314,7.573852 6.619277,7.402766 6.619277,7.402763 Z"
         id="path25199-8"
         sodipodi:nodetypes="czcscsc" />
      <path
         style="fill:#ffffff;fill-opacity:1;stroke:#636362;stroke-width:0.410599;stroke-dasharray:none;stroke-opacity:1"
         d="m 10.571976,10.38427 6.612842,0.01283"
         id="path27299" />
      <path
         style="fill:#ffffff;fill-opacity:1;stroke:#636362;stroke-width:0.410727;stroke-dasharray:none;stroke-opacity:1"
         d="m 10.563854,11.311588 6.617074,0.01283"
         id="path27299-7" />
      <path
         style="fill:#ffffff;fill-opacity:1;stroke:#636362;stroke-width:0.356753;stroke-dasharray:none;stroke-opacity:1"
         d="m 11.910774,12.102544 3.97054,0.01612"
         id="path27299-9" />
    </g>
  </g>
</svg>
