<?xml version="1.0" encoding="UTF-8" standalone="no"?>
<!-- Created with Inkscape (http://www.inkscape.org/) -->

<svg
   width="10.583333mm"
   height="10.583389mm"
   viewBox="0 0 10.583333 10.583389"
   version="1.1"
   id="svg480"
   sodipodi:docname="workshop-icon.svg"
   inkscape:version="1.2.2 (b0a8486541, 2022-12-01)"
   xmlns:inkscape="http://www.inkscape.org/namespaces/inkscape"
   xmlns:sodipodi="http://sodipodi.sourceforge.net/DTD/sodipodi-0.dtd"
   xmlns="http://www.w3.org/2000/svg"
   xmlns:svg="http://www.w3.org/2000/svg">
  <sodipodi:namedview
     id="namedview10"
     pagecolor="#ffffff"
     bordercolor="#000000"
     borderopacity="0.25"
     inkscape:showpageshadow="2"
     inkscape:pageopacity="0.0"
     inkscape:pagecheckerboard="0"
     inkscape:deskcolor="#d1d1d1"
     inkscape:document-units="mm"
     showgrid="false"
     inkscape:zoom="7.8368173"
     inkscape:cx="3.1900705"
     inkscape:cy="38.280846"
     inkscape:window-width="1920"
     inkscape:window-height="1007"
     inkscape:window-x="0"
     inkscape:window-y="0"
     inkscape:window-maximized="1"
     inkscape:current-layer="svg480" />
  <defs
     id="defs477" />
  <rect
     style="fill:#ffffff;fill-opacity:1;stroke:#636363;stroke-width:0.2128;stroke-linejoin:bevel;stroke-dasharray:none;stroke-dashoffset:0;stroke-opacity:1;paint-order:fill markers stroke"
     id="rect40151"
     width="8.5661507"
     height="7.2492852"
     x="0.1064"
     y="3.227704"
     ry="1.2962403" />
  <path
     style="fill:#ec5242;fill-opacity:1;stroke:#636363;stroke-width:0.2128;stroke-linejoin:bevel;stroke-dasharray:none;stroke-dashoffset:0;stroke-opacity:1;paint-order:fill markers stroke"
     id="path40205"
     d="M 4.2351034,1.405323 A 1.2082366,1.5022843 0 0 1 3.2021195,3.0970739 1.2082366,1.5022843 0 0 1 1.8410295,1.8134666 1.2082366,1.5022843 0 0 1 2.8727701,0.12054287 1.2082366,1.5022843 0 0 1 4.2348025,1.4026041" />
  <path
     style="display:inline;fill:#ec5242;fill-opacity:1;stroke:#636363;stroke-width:0.2128;stroke-linejoin:bevel;stroke-dasharray:none;stroke-dashoffset:0;stroke-opacity:1;paint-order:fill markers stroke"
     id="path40205-7"
     d="M 6.8335327,1.4581296 A 1.2082366,1.5022843 0 0 1 5.8005493,3.1498807 1.2082366,1.5022843 0 0 1 4.4394593,1.8662733 1.2082366,1.5022843 0 0 1 5.4711989,0.17334958 1.2082366,1.5022843 0 0 1 6.8332317,1.4554108" />
  <path
     id="rect40239"
     style="fill:#ffffff;fill-opacity:1;stroke:#636363;stroke-width:0.2128;stroke-linejoin:bevel;stroke-dasharray:none;stroke-opacity:1;paint-order:fill markers stroke"
     d="M 8.7614412,6.3701946 10.476933,4.7992579 V 9.35617 L 8.7584249,7.9732052 Z" />
</svg>
