<?xml version="1.0" encoding="UTF-8" standalone="no"?>
<!-- Created with Inkscape (http://www.inkscape.org/) -->

<svg
   width="19.965647mm"
   height="19.821625mm"
   viewBox="0 0 19.965647 19.821625"
   version="1.1"
   id="svg480"
   sodipodi:docname="workshop-icon.svg"
   inkscape:version="1.2.2 (b0a8486541, 2022-12-01)"
   xmlns:inkscape="http://www.inkscape.org/namespaces/inkscape"
   xmlns:sodipodi="http://sodipodi.sourceforge.net/DTD/sodipodi-0.dtd"
   xmlns="http://www.w3.org/2000/svg"
   xmlns:svg="http://www.w3.org/2000/svg">
  <sodipodi:namedview
     id="namedview10"
     pagecolor="#ffffff"
     bordercolor="#000000"
     borderopacity="0.25"
     inkscape:showpageshadow="2"
     inkscape:pageopacity="0.0"
     inkscape:pagecheckerboard="0"
     inkscape:deskcolor="#d1d1d1"
     inkscape:document-units="mm"
     showgrid="false"
     inkscape:zoom="7.8368173"
     inkscape:cx="7.4009637"
     inkscape:cy="38.153244"
     inkscape:window-width="1920"
     inkscape:window-height="1007"
     inkscape:window-x="0"
     inkscape:window-y="0"
     inkscape:window-maximized="1"
     inkscape:current-layer="svg480" />
  <defs
     id="defs477" />
  <rect
     style="fill:#ffffff;fill-opacity:1;stroke:#636363;stroke-width:0.4;stroke-linejoin:bevel;stroke-dasharray:none;stroke-dashoffset:0;stroke-opacity:1;paint-order:fill markers stroke"
     id="rect40151"
     width="16.161394"
     height="13.576165"
     x="0.2"
     y="6.0454602"
     ry="2.427546" />
  <path
     style="fill:#ec5242;fill-opacity:1;stroke:#636363;stroke-width:0.4;stroke-linejoin:bevel;stroke-dasharray:none;stroke-dashoffset:0;stroke-opacity:1;paint-order:fill markers stroke"
     id="path40205"
     d="M 7.9894498,2.6325789 A 2.2795288,2.8134167 0 0 1 6.0405629,5.8008211 2.2795288,2.8134167 0 0 1 3.472652,3.3969337 2.2795288,2.8134167 0 0 1 5.4191932,0.22649508 2.2795288,2.8134167 0 0 1 7.9888821,2.6274871" />
  <path
     style="display:inline;fill:#ec5242;fill-opacity:1;stroke:#636363;stroke-width:0.4;stroke-linejoin:bevel;stroke-dasharray:none;stroke-dashoffset:0;stroke-opacity:1;paint-order:fill markers stroke"
     id="path40205-7"
     d="M 12.891796,2.7314731 A 2.2795288,2.8134167 0 0 1 10.94291,5.8997154 2.2795288,2.8134167 0 0 1 8.3749995,3.4958279 2.2795288,2.8134167 0 0 1 10.321539,0.32538934 2.2795288,2.8134167 0 0 1 12.891229,2.7263814" />
  <path
     id="rect40239"
     style="fill:#ffffff;fill-opacity:1;stroke:#636363;stroke-width:0.4;stroke-linejoin:bevel;stroke-dasharray:none;stroke-opacity:1;paint-order:fill markers stroke"
     d="m 16.5291,11.930588 3.236546,-2.9419861 v 8.5339991 l -3.242237,-2.58996 z" />
</svg>
